<?xml version="1.0" encoding="utf-8"?>
<!-- Generator: Adobe Illustrator 17.1.0, SVG Export Plug-In . SVG Version: 6.00 Build 0)  -->
<!DOCTYPE svg PUBLIC "-//W3C//DTD SVG 1.1//EN" "http://www.w3.org/Graphics/SVG/1.1/DTD/svg11.dtd">
<svg version="1.1" id="Layer_1" xmlns="http://www.w3.org/2000/svg" xmlns:xlink="http://www.w3.org/1999/xlink" x="0px" y="0px"
	 viewBox="0 0 1224 792" enable-background="new 0 0 1224 792" xml:space="preserve">
<path fill="#F9AE4B" d="M877.7,486.3c0,6.6-5.4,12-12,12H102.3c-6.6,0-12-5.4-12-12V250.8c0-6.6,5.4-12,12-12h763.5
	c6.6,0,12,5.4,12,12V486.3z"/>
<rect x="376.6" y="321.5" fill="none" width="546" height="108"/>
<text transform="matrix(1 0 0 1 376.6078 413.9028)" fill="#FFFFFF" stroke="#FFFFFF" stroke-width="22" stroke-miterlimit="10" font-family="'VAGRoundedStd-Bold'" font-size="120">Doll land</text>
<ellipse fill="#FFFFFF" stroke="#FFFFFF" stroke-width="6" stroke-miterlimit="10" cx="161.7" cy="313.7" rx="54.5" ry="54.9"/>
<ellipse fill="#FFFFFF" stroke="#FFFFFF" stroke-width="6" stroke-miterlimit="10" cx="299.3" cy="313.7" rx="54.5" ry="54.9"/>
<ellipse fill="#FFFFFF" cx="234.2" cy="392.1" rx="97.6" ry="98.2"/>
<circle fill="#F9AE4B" cx="167.4" cy="319.1" r="50"/>
<circle fill="#F9AE4B" cx="293.6" cy="319.1" r="50"/>
<circle fill="#F9AE4B" cx="233.9" cy="390.5" r="89.5"/>
<path fill="none" stroke="#FFFFFF" stroke-width="3" stroke-miterlimit="10" d="M230.1,415.2c0,25.4-38.5,17.9-38.5,17.9"/>
<path fill="none" stroke="#FFFFFF" stroke-width="3" stroke-miterlimit="10" d="M271.1,433.1c0,0-38.5,7.5-38.5-17.9"/>
<path fill="none" stroke="#FFFFFF" stroke-width="3" stroke-miterlimit="10" d="M68.6,340.6"/>
<path fill="#FFFFFF" d="M223.2,401.5H239c3.1,0,4.7,3.8,2.5,6l-7.9,7.9c-1.4,1.4-3.6,1.4-5,0l-7.9-7.9
	C218.4,405.3,220,401.5,223.2,401.5z"/>
<circle fill="#FFFFFF" stroke="#FFFFFF" stroke-width="8" stroke-miterlimit="10" cx="194.6" cy="373" r="5"/>
<circle fill="#FFFFFF" stroke="#FFFFFF" stroke-width="8" stroke-miterlimit="10" cx="265.6" cy="371" r="5"/>
<rect x="377.6" y="321.5" fill="none" width="546" height="108"/>
<text transform="matrix(1 0 0 1 377.6078 413.9028)" fill="#F9AE4B" font-family="'VAGRoundedStd-Bold'" font-size="120">Doll land</text>
</svg>
