<svg xmlns="http://www.w3.org/2000/svg" viewBox="0 0 432 144" enable-background="new 0 0 432 144"><style type="text/css">.st0{fill:#F8AE4D;} .st1{fill:none;} .st2{enable-background:new ;} .st3{fill:#FFFFFF;} .st4{fill:none;stroke:#FFFFFF;stroke-width:22;stroke-miterlimit:10;} .st5{fill:#FFFFFF;stroke:#FFFFFF;stroke-width:6;stroke-miterlimit:10;} .st6{fill:none;stroke:#FFFFFF;stroke-width:3;stroke-miterlimit:10;} .st7{fill:#FFFFFF;stroke:#FFFFFF;stroke-width:8;stroke-miterlimit:10;}</style><path class="st0" d="M406.9 131.1c0 3.3-2.7 6-6 6h-381.7c-3.3 0-6-2.7-6-6v-117.7c0-3.3 2.7-6 6-6h381.8c3.3 0 6 2.7 6 6l-.1 117.7z"/><path class="st1" d="M156.3 48.8h273v54h-273z"/><g class="st2"><path class="st3" d="M159 56.9c0-2.8 1.9-4.6 4.6-4.6h10c13.4 0 21.1 8.6 21.1 22 0 12.6-8.2 20.8-20.5 20.8h-10.4c-2 0-4.7-1.1-4.7-4.5v-33.7zm9 29.8h6.1c7.7 0 11.3-5.7 11.3-12.9 0-7.7-3.6-13.3-11.9-13.3h-5.5v26.2zM228.5 79.1c0 9-6.2 16.6-15.5 16.6s-15.5-7.6-15.5-16.6c0-8.8 6.4-16.7 15.5-16.7s15.5 7.9 15.5 16.7zm-22.3 0c0 4.1 2.2 8.7 6.8 8.7 4.7 0 6.8-4.6 6.8-8.7s-2.1-8.8-6.8-8.8-6.8 4.6-6.8 8.8zM232 53.6c0-2.9 1.8-4.8 4.3-4.8s4.3 1.9 4.3 4.8v37c0 2.9-1.8 4.8-4.3 4.8s-4.3-1.9-4.3-4.8v-37zM245.3 53.6c0-2.9 1.8-4.8 4.3-4.8s4.3 1.9 4.3 4.8v37c0 2.9-1.8 4.8-4.3 4.8s-4.3-1.9-4.3-4.8v-37zM274.7 53.6c0-2.9 1.8-4.8 4.3-4.8s4.3 1.9 4.3 4.8v37c0 2.9-1.8 4.8-4.3 4.8s-4.3-1.9-4.3-4.8v-37zM317.7 89.7c0 2.2 0 5.6-4.1 5.6-2.5 0-3.5-1.4-4.1-3.7-2.2 2.6-4.9 4-8.2 4-8.1 0-14.3-6.9-14.3-16.6 0-9.5 6.4-16.7 14.3-16.7 3.2 0 6.3 1.3 8.2 4 .2-2.1 2-3.6 4.1-3.6 4.1 0 4.1 3.4 4.1 5.6v21.4zm-15.3-1.9c4.5 0 6.7-4.6 6.7-8.7s-2.1-8.8-6.7-8.8c-4.7 0-6.8 4.7-6.8 8.8s2.1 8.7 6.8 8.7zM322.6 67.5c0-2.9 1.8-4.8 4.3-4.8 2.2 0 3.7 1.2 4 3.2 1.7-2.3 4.3-3.5 8.3-3.5 6.8 0 11.8 4.3 11.8 11.6v16.6c0 2.9-1.8 4.8-4.3 4.8s-4.3-1.9-4.3-4.8v-15.1c0-4-2.5-5.9-5.6-5.9-3.5 0-5.5 2.6-5.5 5.9v15.1c0 2.9-1.8 4.8-4.3 4.8s-4.3-1.9-4.3-4.8v-23.1zM385.5 90.5c0 2.9-1.8 4.8-4.3 4.8-2.4 0-3.8-1.3-4.3-3.6-1.6 2.6-5 4-7.9 4-8.7 0-14.2-8.1-14.2-16.3 0-8.4 4.6-17.1 13.9-17.1 3 0 5.9 1 8.2 3v-11.7c0-2.9 1.8-4.8 4.3-4.8s4.3 1.9 4.3 4.8v36.9zm-15.4-20.3c-4.5 0-6.7 4.7-6.7 8.8 0 4 2.2 8.7 6.7 8.7 4.7 0 6.8-4.8 6.8-9 0-4.1-2.2-8.5-6.8-8.5z"/></g><g class="st2"><path class="st4" d="M159 56.9c0-2.8 1.9-4.6 4.6-4.6h10c13.4 0 21.1 8.6 21.1 22 0 12.6-8.2 20.8-20.5 20.8h-10.4c-2 0-4.7-1.1-4.7-4.5v-33.7zm9 29.8h6.1c7.7 0 11.3-5.7 11.3-12.9 0-7.7-3.6-13.3-11.9-13.3h-5.5v26.2zM228.5 79.1c0 9-6.2 16.6-15.5 16.6s-15.5-7.6-15.5-16.6c0-8.8 6.4-16.7 15.5-16.7s15.5 7.9 15.5 16.7zm-22.3 0c0 4.1 2.2 8.7 6.8 8.7 4.7 0 6.8-4.6 6.8-8.7s-2.1-8.8-6.8-8.8-6.8 4.6-6.8 8.8zM232 53.6c0-2.9 1.8-4.8 4.3-4.8s4.3 1.9 4.3 4.8v37c0 2.9-1.8 4.8-4.3 4.8s-4.3-1.9-4.3-4.8v-37zM245.3 53.6c0-2.9 1.8-4.8 4.3-4.8s4.3 1.9 4.3 4.8v37c0 2.9-1.8 4.8-4.3 4.8s-4.3-1.9-4.3-4.8v-37zM274.7 53.6c0-2.9 1.8-4.8 4.3-4.8s4.3 1.9 4.3 4.8v37c0 2.9-1.8 4.8-4.3 4.8s-4.3-1.9-4.3-4.8v-37zM317.7 89.7c0 2.2 0 5.6-4.1 5.6-2.5 0-3.5-1.4-4.1-3.7-2.2 2.6-4.9 4-8.2 4-8.1 0-14.3-6.9-14.3-16.6 0-9.5 6.4-16.7 14.3-16.7 3.2 0 6.3 1.3 8.2 4 .2-2.1 2-3.6 4.1-3.6 4.1 0 4.1 3.4 4.1 5.6v21.4zm-15.3-1.9c4.5 0 6.7-4.6 6.7-8.7s-2.1-8.8-6.7-8.8c-4.7 0-6.8 4.7-6.8 8.8s2.1 8.7 6.8 8.7zM322.6 67.5c0-2.9 1.8-4.8 4.3-4.8 2.2 0 3.7 1.2 4 3.2 1.7-2.3 4.3-3.5 8.3-3.5 6.8 0 11.8 4.3 11.8 11.6v16.6c0 2.9-1.8 4.8-4.3 4.8s-4.3-1.9-4.3-4.8v-15.1c0-4-2.5-5.9-5.6-5.9-3.5 0-5.5 2.6-5.5 5.9v15.1c0 2.9-1.8 4.8-4.3 4.8s-4.3-1.9-4.3-4.8v-23.1zM385.5 90.5c0 2.9-1.8 4.8-4.3 4.8-2.4 0-3.8-1.3-4.3-3.6-1.6 2.6-5 4-7.9 4-8.7 0-14.2-8.1-14.2-16.3 0-8.4 4.6-17.1 13.9-17.1 3 0 5.9 1 8.2 3v-11.7c0-2.9 1.8-4.8 4.3-4.8s4.3 1.9 4.3 4.8v36.9zm-15.4-20.3c-4.5 0-6.7 4.7-6.7 8.8 0 4 2.2 8.7 6.7 8.7 4.7 0 6.8-4.8 6.8-9 0-4.1-2.2-8.5-6.8-8.5z"/></g><ellipse class="st5" cx="48.8" cy="44.9" rx="27.2" ry="27.4"/><ellipse class="st5" cx="117.6" cy="44.9" rx="27.2" ry="27.4"/><ellipse class="st3" cx="85.1" cy="84.1" rx="48.8" ry="49.1"/><circle class="st0" cx="51.7" cy="47.6" r="25"/><circle class="st0" cx="114.8" cy="47.6" r="25"/><circle class="st0" cx="84.9" cy="83.2" r="44.8"/><path class="st6" d="M83.1 95.6c0 12.7-19.2 8.9-19.2 8.9M103.6 104.6s-19.2 3.8-19.2-8.9M2.3 58.3"/><path class="st3" d="M79.6 88.8h7.9c1.6 0 2.3 1.9 1.2 3l-3.9 3.9c-.7.7-1.8.7-2.5 0l-3.9-3.9c-1.2-1.2-.4-3 1.2-3z"/><circle class="st7" cx="65.3" cy="74.5" r="2.5"/><circle class="st7" cx="100.8" cy="73.5" r="2.5"/><path class="st1" d="M156.8 48.8h273v54h-273z"/><g class="st2"><path class="st0" d="M159.5 56.9c0-2.8 1.9-4.6 4.6-4.6h10c13.4 0 21.1 8.6 21.1 22 0 12.6-8.2 20.8-20.5 20.8h-10.4c-2 0-4.7-1.1-4.7-4.5v-33.7zm9 29.8h6.1c7.7 0 11.3-5.7 11.3-12.9 0-7.7-3.6-13.3-11.9-13.3h-5.5v26.2zM229 79.1c0 9-6.2 16.6-15.5 16.6s-15.5-7.6-15.5-16.6c0-8.8 6.4-16.7 15.5-16.7s15.5 7.9 15.5 16.7zm-22.3 0c0 4.1 2.2 8.7 6.8 8.7 4.7 0 6.8-4.6 6.8-8.7s-2.1-8.8-6.8-8.8-6.8 4.6-6.8 8.8zM232.5 53.6c0-2.9 1.8-4.8 4.3-4.8s4.3 1.9 4.3 4.8v37c0 2.9-1.8 4.8-4.3 4.8s-4.3-1.9-4.3-4.8v-37zM245.8 53.6c0-2.9 1.8-4.8 4.3-4.8s4.3 1.9 4.3 4.8v37c0 2.9-1.8 4.8-4.3 4.8s-4.3-1.9-4.3-4.8v-37zM275.2 53.6c0-2.9 1.8-4.8 4.3-4.8s4.3 1.9 4.3 4.8v37c0 2.9-1.8 4.8-4.3 4.8s-4.3-1.9-4.3-4.8v-37zM318.2 89.7c0 2.2 0 5.6-4.1 5.6-2.5 0-3.5-1.4-4.1-3.7-2.2 2.6-4.9 4-8.2 4-8.1 0-14.3-6.9-14.3-16.6 0-9.5 6.4-16.7 14.3-16.7 3.2 0 6.3 1.3 8.2 4 .2-2.1 2-3.6 4.1-3.6 4.1 0 4.1 3.4 4.1 5.6v21.4zm-15.3-1.9c4.5 0 6.7-4.6 6.7-8.7s-2.1-8.8-6.7-8.8c-4.7 0-6.8 4.7-6.8 8.8s2.1 8.7 6.8 8.7zM323.1 67.5c0-2.9 1.8-4.8 4.3-4.8 2.2 0 3.7 1.2 4 3.2 1.7-2.3 4.3-3.5 8.3-3.5 6.8 0 11.8 4.3 11.8 11.6v16.6c0 2.9-1.8 4.8-4.3 4.8s-4.3-1.9-4.3-4.8v-15.1c0-4-2.5-5.9-5.6-5.9-3.5 0-5.5 2.6-5.5 5.9v15.1c0 2.9-1.8 4.8-4.3 4.8s-4.3-1.9-4.3-4.8v-23.1zM386 90.5c0 2.9-1.8 4.8-4.3 4.8-2.4 0-3.8-1.3-4.3-3.6-1.6 2.6-5 4-7.9 4-8.7 0-14.2-8.1-14.2-16.3 0-8.4 4.6-17.1 13.9-17.1 3 0 5.9 1 8.2 3v-11.7c0-2.9 1.8-4.8 4.3-4.8s4.3 1.9 4.3 4.8v36.9zm-15.4-20.3c-4.5 0-6.7 4.7-6.7 8.8 0 4 2.2 8.7 6.7 8.7 4.7 0 6.8-4.8 6.8-9 0-4.1-2.2-8.5-6.8-8.5z"/></g></svg>