<?xml version="1.0" encoding="utf-8"?>
<!-- Generator: Adobe Illustrator 17.1.0, SVG Export Plug-In . SVG Version: 6.00 Build 0)  -->
<!DOCTYPE svg PUBLIC "-//W3C//DTD SVG 1.1//EN" "http://www.w3.org/Graphics/SVG/1.1/DTD/svg11.dtd">
<svg version="1.1" id="Layer_1" xmlns="http://www.w3.org/2000/svg" xmlns:xlink="http://www.w3.org/1999/xlink" x="0px" y="0px"
	 viewBox="0 0 432 144" enable-background="new 0 0 432 144" xml:space="preserve">
<path fill="#F8AE4D" d="M406.9,131.1c0,3.3-2.7,6-6,6H19.2c-3.3,0-6-2.7-6-6V13.4c0-3.3,2.7-6,6-6h381.8c3.3,0,6,2.7,6,6
	L406.9,131.1L406.9,131.1z"/>
<rect x="156.3" y="48.8" fill="none" width="273" height="54"/>
<text transform="matrix(1 0 0 1 156.3037 94.9512)" fill="#FFFFFF" font-family="'VAGRoundedStd-Bold'" font-size="60">Doll land</text>
<text transform="matrix(1 0 0 1 156.3037 94.9512)" fill="none" stroke="#FFFFFF" stroke-width="22" stroke-miterlimit="10" font-family="'VAGRoundedStd-Bold'" font-size="60">Doll land</text>
<ellipse fill="#FFFFFF" stroke="#FFFFFF" stroke-width="6" stroke-miterlimit="10" cx="48.8" cy="44.9" rx="27.2" ry="27.4"/>
<ellipse fill="#FFFFFF" stroke="#FFFFFF" stroke-width="6" stroke-miterlimit="10" cx="117.6" cy="44.9" rx="27.2" ry="27.4"/>
<ellipse fill="#FFFFFF" cx="85.1" cy="84.1" rx="48.8" ry="49.1"/>
<circle fill="#F8AE4D" cx="51.7" cy="47.6" r="25"/>
<circle fill="#F8AE4D" cx="114.8" cy="47.6" r="25"/>
<circle fill="#F8AE4D" cx="84.9" cy="83.2" r="44.8"/>
<path fill="none" stroke="#FFFFFF" stroke-width="3" stroke-miterlimit="10" d="M83.1,95.6c0,12.7-19.2,8.9-19.2,8.9"/>
<path fill="none" stroke="#FFFFFF" stroke-width="3" stroke-miterlimit="10" d="M103.6,104.6c0,0-19.2,3.8-19.2-8.9"/>
<path fill="none" stroke="#FFFFFF" stroke-width="3" stroke-miterlimit="10" d="M2.3,58.3"/>
<path fill="#FFFFFF" d="M79.6,88.8h7.9c1.6,0,2.3,1.9,1.2,3l-3.9,3.9c-0.7,0.7-1.8,0.7-2.5,0l-3.9-3.9C77.2,90.6,78,88.8,79.6,88.8z
	"/>
<circle fill="#FFFFFF" stroke="#FFFFFF" stroke-width="8" stroke-miterlimit="10" cx="65.3" cy="74.5" r="2.5"/>
<circle fill="#FFFFFF" stroke="#FFFFFF" stroke-width="8" stroke-miterlimit="10" cx="100.8" cy="73.5" r="2.5"/>
<rect x="156.8" y="48.8" fill="none" width="273" height="54"/>
<text transform="matrix(1 0 0 1 156.8037 94.9512)" fill="#F8AE4D" font-family="'VAGRoundedStd-Bold'" font-size="60">Doll land</text>
</svg>
